<?xml version="1.0" encoding="UTF-8"?>
<svg xmlns="http://www.w3.org/2000/svg" width="1371" height="238" viewBox="0 0 1371 238" fill="none">
  <path d="M91.8803 238H0.335V0.0751438H90.9509C115.425 0.0751438 136.569 4.83829 154.382 14.3646C172.273 23.8134 186.059 37.4445 195.74 55.2579C205.499 72.9938 210.378 94.2537 210.378 119.038C210.378 143.821 205.537 165.12 195.856 182.933C186.175 200.669 172.467 214.3 154.731 223.827C136.995 233.276 116.045 238 91.8803 238ZM64.9279 183.166H89.5568C101.329 183.166 111.359 181.268 119.646 177.473C128.01 173.678 134.361 167.134 138.699 157.84C143.113 148.546 145.32 135.612 145.32 119.038C145.32 102.463 143.074 89.5293 138.582 80.2354C134.168 70.9414 127.662 64.3969 119.065 60.6019C110.546 56.8069 100.09 54.9094 87.698 54.9094H64.9279V183.166ZM240.264 238V0.0751438H342.962C360.62 0.0751438 376.072 3.2893 389.315 9.71761C402.559 16.1459 412.86 25.4011 420.218 37.4833C427.575 49.5654 431.254 64.0484 431.254 80.9324C431.254 97.9713 427.459 112.338 419.869 124.033C412.357 135.728 401.785 144.557 388.154 150.521C374.6 156.484 358.762 159.466 340.638 159.466H279.298V109.279H327.627C335.217 109.279 341.684 108.35 347.028 106.491C352.449 104.555 356.593 101.495 359.459 97.313C362.402 93.1307 363.873 87.6705 363.873 80.9324C363.873 74.1169 362.402 68.5792 359.459 64.3195C356.593 59.9823 352.449 56.8069 347.028 54.7932C341.684 52.7021 335.217 51.6565 327.627 51.6565H304.857V238H240.264ZM379.673 128.796L439.154 238H368.985L310.898 128.796H379.673ZM437.847 0.0751438H509.875L556.345 96.7321H558.204L604.673 0.0751438H676.701L589.338 163.184V238H525.21V163.184L437.847 0.0751438ZM735.282 238H665.578L744.112 0.0751438H832.404L910.938 238H841.233L789.187 65.5974H787.328L735.282 238ZM722.271 144.131H853.315V192.46H722.271V144.131ZM933.853 238V0.0751438H1036.55C1054.21 0.0751438 1069.66 3.2893 1082.9 9.71761C1096.15 16.1459 1106.45 25.4011 1113.81 37.4833C1121.16 49.5654 1124.84 64.0484 1124.84 80.9324C1124.84 97.9713 1121.05 112.338 1113.46 124.033C1105.95 135.728 1095.37 144.557 1081.74 150.521C1068.19 156.484 1052.35 159.466 1034.23 159.466H972.888V109.279H1021.22C1028.81 109.279 1035.27 108.35 1040.62 106.491C1046.04 104.555 1050.18 101.495 1053.05 97.313C1055.99 93.1307 1057.46 87.6705 1057.46 80.9324C1057.46 74.1169 1055.99 68.5792 1053.05 64.3195C1050.18 59.9823 1046.04 56.8069 1040.62 54.7932C1035.27 52.7021 1028.81 51.6565 1021.22 51.6565H998.446V238H933.853ZM1073.26 128.796L1132.74 238H1062.57L1004.49 128.796H1073.26ZM1131.44 0.0751438H1203.46L1249.93 96.7321H1251.79L1298.26 0.0751438H1370.29L1282.93 163.184V238H1218.8V163.184L1131.44 0.0751438Z" fill="#333333" fill-opacity="0.03"></path>
</svg>
